<?xml version="1.0" standalone="no"?>
<!DOCTYPE svg PUBLIC "-//W3C//DTD SVG 20010904//EN"
 "http://www.w3.org/TR/2001/REC-SVG-20010904/DTD/svg10.dtd">
<svg version="1.0" xmlns="http://www.w3.org/2000/svg"
 width="308.000000pt" height="182.400000pt" viewBox="0 0 308.000000 182.400000"
 preserveAspectRatio="xMidYMid meet">
<metadata>
Created by potrace 1.13, written by Peter Selinger 2001-2015
</metadata>
<g transform="translate(0.000000,182.400000) scale(0.080000,-0.080000)"
fill="#000000" stroke="none">
<path d="M1428 2213 c0 -10 -1 -24 -1 -30 1 -15 1 -14 -49 -18 -55 -4 -68 -12
-68 -40 0 -21 8 -30 44 -46 36 -16 45 -24 49 -51 5 -33 -7 -141 -19 -172 -5
-13 1 -16 35 -16 23 0 41 -4 41 -8 0 -10 -36 -43 -71 -65 -120 -74 -522 -124
-911 -113 -141 4 -229 3 -232 -3 -10 -16 13 -65 41 -87 l26 -22 36 22 c33 19
55 22 266 27 223 7 315 16 555 59 182 32 190 33 190 25 0 -4 -23 -45 -51 -90
-49 -80 -76 -153 -61 -166 4 -4 19 -9 33 -13 26 -6 28 -3 59 92 35 107 82 182
130 207 36 19 120 36 120 24 0 -8 -38 -47 -118 -122 -29 -27 -52 -54 -52 -61
0 -7 24 -31 52 -52 29 -22 54 -47 56 -57 2 -10 -16 -36 -44 -65 -63 -62 -108
-159 -101 -213 7 -54 29 -85 78 -110 40 -20 41 -22 36 -62 -6 -62 11 -274 34
-422 12 -72 23 -195 26 -275 5 -123 3 -151 -11 -177 -9 -18 -16 -43 -16 -58 0
-20 5 -25 24 -25 49 0 55 124 28 640 -13 246 13 366 96 442 115 106 122 115
122 147 0 64 -44 111 -104 111 -18 0 -26 7 -31 28 -3 15 -20 48 -36 75 -36 59
-37 98 -3 165 32 64 87 106 174 133 61 19 112 24 455 49 77 6 161 15 188 21
40 9 47 14 47 34 0 40 -46 83 -108 102 -48 15 -96 18 -307 18 -264 -1 -365
-12 -490 -55 -32 -11 -60 -20 -61 -20 -9 0 -25 86 -20 105 5 21 10 22 79 17
88 -5 120 7 115 44 -2 21 -13 29 -58 44 -54 18 -100 58 -100 86 0 10 -14 14
-55 14 -45 0 -55 -3 -57 -17z m130 -90 c2 -8 -6 -13 -22 -13 -25 0 -33 10 -19
24 10 10 36 3 41 -11z m631 -177 c-2 -3 -74 -19 -159 -37 -85 -17 -178 -40
-207 -50 -29 -10 -53 -15 -53 -11 0 4 -10 20 -23 36 -20 24 -28 27 -55 21 -29
-6 -32 -10 -32 -45 0 -42 -8 -47 -107 -69 -53 -11 -56 2 -10 49 76 78 204 108
471 109 99 1 177 -1 175 -3z m-640 -759 c-32 -26 -36 -5 -7 35 23 33 23 33 26
8 3 -16 -4 -30 -19 -43z"/>
<path d="M3127 2053 c-4 -3 -7 -28 -7 -55 0 -61 9 -64 99 -44 38 9 75 16 80
16 24 0 9 -29 -29 -55 -39 -27 -53 -55 -27 -55 22 0 116 60 127 81 7 11 9 32
6 45 -6 21 -12 24 -56 24 -28 0 -78 11 -116 25 -76 29 -69 27 -77 18z"/>
<path d="M2761 1898 c-24 -69 -12 -89 62 -103 34 -7 37 -5 37 16 0 34 -41 100
-67 110 -18 7 -23 3 -32 -23z"/>
<path d="M3138 1820 c-20 -17 -49 -56 -65 -88 -25 -51 -28 -68 -29 -163 0 -94
-3 -109 -22 -134 -59 -75 -67 -228 -18 -329 29 -59 59 -85 112 -93 32 -5 34
-4 34 24 0 29 2 30 72 43 143 25 258 78 314 144 19 22 34 46 34 53 0 7 5 13
10 13 6 0 10 36 10 88 l0 89 -37 16 c-50 22 -94 26 -176 18 -37 -4 -67 -5 -67
-3 0 3 22 27 50 53 58 58 71 99 45 149 l-17 33 -81 -6 c-45 -3 -103 -9 -129
-13 -60 -8 -63 5 -13 63 59 69 41 99 -27 43z m113 -229 c-21 -38 -114 -101
-128 -87 -3 3 -1 17 4 33 12 35 66 73 105 73 25 0 27 -2 19 -19z m259 -208 c9
-8 -35 -76 -73 -110 -40 -35 -117 -75 -171 -87 -32 -8 -32 -10 -1 72 9 27 13
57 9 77 l-6 33 54 11 c29 6 64 12 78 14 27 3 102 -3 110 -10z m-287 -29 c3 -3
1 -19 -5 -36 -8 -23 -13 -27 -19 -16 -15 26 5 70 24 52z m-68 -54 c3 -9 -4
-38 -15 -64 -11 -26 -20 -56 -20 -66 0 -10 -4 -22 -10 -25 -13 -8 -66 21 -74
40 -17 46 8 106 56 135 34 20 52 15 63 -20z"/>
<path d="M2736 1695 c-3 -9 -6 -41 -6 -71 0 -49 -3 -58 -31 -81 -16 -14 -57
-61 -89 -103 -74 -97 -133 -148 -187 -163 -49 -13 -53 -24 -20 -55 22 -21 25
-21 74 -7 27 8 68 27 89 41 54 37 124 74 140 74 10 0 14 -16 14 -60 0 -34 7
-74 15 -89 14 -29 40 -45 55 -36 15 10 17 58 4 114 -7 31 -13 66 -14 79 0 26
1 27 80 97 59 52 120 124 120 140 -1 6 -24 -15 -53 -45 -66 -70 -86 -86 -116
-95 l-24 -7 5 103 c7 112 -5 171 -33 177 -9 2 -19 -4 -23 -13z m-8 -272 c3
-22 -48 -73 -74 -73 -22 0 -17 19 17 61 33 42 52 46 57 12z"/>
</g>
</svg>
